<svg width="28" height="28" viewBox="0 0 28 28" fill="none" xmlns="http://www.w3.org/2000/svg">
<g clip-path="url(#clip0_64:7)">
<path d="M18.4236 4.89316V4.39316V0.820312C18.4236 0.64336 18.2802 0.5 18.1032 0.5H13.7101C13.5331 0.5 13.3898 0.64336 13.3898 0.820312V4.39316V4.89316H12.8898H5.21622H4.77848L4.72061 4.45926L4.52002 2.95538C4.52002 2.95538 4.52002 2.95537 4.52001 2.95536C4.4243 2.23807 4.12756 1.61004 3.73579 1.16924C3.34201 0.726187 2.88099 0.5 2.44766 0.5H0.983276C0.806324 0.5 0.662964 0.64336 0.662964 0.820312C0.662964 0.997265 0.806324 1.14062 0.983276 1.14062H2.44766C2.66896 1.14062 2.85811 1.24656 2.98311 1.33758C3.12258 1.43914 3.25549 1.57565 3.37342 1.73471C3.61042 2.05439 3.81299 2.50023 3.88493 3.04C3.88493 3.04001 3.88493 3.04002 3.88493 3.04004L6.23307 20.6515L6.23308 20.6516C6.31956 21.3009 6.65488 21.9196 7.18982 22.3879L7.18986 22.3879C7.58609 22.7349 8.05046 22.9622 8.53141 23.0569L9.19932 23.1883L8.87413 23.7863C8.68076 24.1419 8.57086 24.5492 8.57086 24.983C8.57086 26.3706 9.70033 27.5 11.0876 27.5C12.475 27.5 13.6046 26.3705 13.6046 24.983C13.6046 24.5697 13.504 24.1803 13.3265 23.8359L12.9509 23.1068H13.771H18.0695H18.8896L18.514 23.8359C18.3365 24.1803 18.2358 24.5697 18.2358 24.983C18.2358 26.3706 19.3653 27.5 20.7528 27.5C22.1401 27.5 23.2696 26.3706 23.2696 24.983C23.2696 24.5697 23.1689 24.1803 22.9916 23.8357L22.6164 23.1068H23.4361H25.5854C25.7621 23.1068 25.9057 22.9633 25.9057 22.7865C25.9057 22.6097 25.7622 22.4662 25.5854 22.4662H9.03751C7.98533 22.4662 7.00702 21.6094 6.86794 20.5666L6.86794 20.5666L6.6964 19.2795L6.62096 18.7135H7.19202H23.3887C24.0437 18.7135 24.7014 18.4629 25.2363 17.9948L18.4236 4.89316ZM18.4236 4.89316H18.9236H25.1462C25.8337 4.89316 26.4337 5.1631 26.8531 5.64199L27.2292 5.31259M18.4236 4.89316L27.2292 5.31259M27.2292 5.31259L26.8531 5.642C27.2725 6.12096 27.4607 6.75159 27.3698 7.43337L27.8654 7.49945M27.2292 5.31259L27.8654 7.49945M27.8654 7.49945L27.3698 7.43338L26.1934 16.2579M27.8654 7.49945L26.1934 16.2579M26.1934 16.2579C26.1065 16.9075 25.7711 17.5264 25.2365 17.9947L26.1934 16.2579ZM14.5304 1.14062H14.0304V1.64062V4.39316V4.89316H14.5304H17.2829H17.7829V4.39316V1.64062V1.14062H17.2829H14.5304ZM26.7347 7.34848L26.2391 7.28241L26.7347 7.34847C26.7967 6.883 26.6808 6.41794 26.3712 6.06411L26.3711 6.06394C26.0614 5.71029 25.6158 5.53378 25.1462 5.53378H18.9236H12.8898H5.43497H4.86389L4.93935 6.09985L6.47765 17.6389L6.5355 18.0728H6.97327H23.3887C24.4408 18.0728 25.4192 17.2161 25.5583 16.1735L25.5583 16.1735L26.7347 7.34848ZM11.0876 26.8594C12.1228 26.8594 12.964 26.0181 12.964 24.983C12.964 23.948 12.1227 23.1068 11.0876 23.1068C10.0527 23.1068 9.21149 23.9481 9.21149 24.983C9.21149 26.0181 10.0527 26.8594 11.0876 26.8594ZM20.7528 26.8594C21.788 26.8594 22.6292 26.0181 22.6292 24.983C22.6292 23.948 21.7879 23.1068 20.7528 23.1068C19.7179 23.1068 18.8766 23.9481 18.8766 24.983C18.8766 26.0181 19.7178 26.8594 20.7528 26.8594Z" stroke="#515076"/>
<path d="M10.9033 5.14526L11.1964 18.2949" stroke="#515076" stroke-width="1.5"/>
<path d="M14.8693 4.66516L15.1624 17.8148" stroke="#515076" stroke-width="1.5"/>
<path d="M18.8354 5.18518L19.1285 18.3349" stroke="#515076" stroke-width="1.5"/>
<path d="M22.8015 5.70514L23.0945 18.8548" stroke="#515076" stroke-width="1.5"/>
</g>
<defs>
<clipPath id="clip0_64:7">
<rect width="28" height="28" fill="white" transform="translate(-0.00109863)"/>
</clipPath>
</defs>
</svg>
