<svg width="22" height="19" viewBox="0 0 23 21" fill="none" xmlns="http://www.w3.org/2000/svg">
<path d="M21.8231 0.994141H1.44143C0.884103 0.994141 0.43042 1.38874 0.43042 1.87497V19.6601C0.43042 20.1451 0.884103 20.5409 1.44143 20.5409H21.823C22.3818 20.5409 22.8355 20.1451 22.8355 19.6601V1.87497C22.8355 1.38874 22.3818 0.994141 21.8231 0.994141V0.994141ZM11.633 7.35659C13.7923 7.35659 15.5426 8.88367 15.5426 10.7675C15.5426 12.6513 13.7923 14.1784 11.633 14.1784C9.47368 14.1784 7.7233 12.6513 7.7233 10.7675C7.7233 8.88367 9.47368 7.35659 11.633 7.35659ZM20.0349 18.0976H3.23106V9.54584H5.07527C4.97863 9.94044 4.92262 10.3485 4.92262 10.7675C4.92262 13.9964 7.93331 16.6217 11.6329 16.6217C15.334 16.6217 18.3432 13.9964 18.3432 10.7675C18.3432 10.3485 18.2872 9.94044 18.192 9.54584H20.0348V18.0976H20.0349ZM20.0349 7.10249H15.834V3.43749H20.0349V7.10249Z" fill="#5B5A7E"/>
</svg>
