<svg width="66" height="66" viewBox="0 0 68 68" fill="none" xmlns="http://www.w3.org/2000/svg">
<path d="M34.3858 2.99228C51.7244 2.99228 65.8631 17.1289 65.8631 34.4648C65.8631 51.8007 51.7244 65.9373 34.3858 65.9373C17.0473 65.9373 2.98294 51.8007 2.98294 34.4648C2.98294 17.1289 17.0473 2.99228 34.3858 2.99228ZM34.3858 0.983398C15.9311 0.983398 0.973755 16.0128 0.973755 34.4648C0.973755 52.9168 15.9311 67.8718 34.3858 67.8718C52.8406 67.8718 67.7979 52.9168 67.7979 34.4648C67.7979 16.0128 52.8406 0.983398 34.3858 0.983398Z" fill="#515076" fill-opacity="0.5"/>
<path d="M25.3817 20.0306C26.8699 20.0306 28.2838 20.6259 29.3256 21.6675C30.3674 22.7092 30.9627 24.1229 30.9627 25.6109C30.9627 27.099 30.3674 28.5127 29.3256 29.5543C28.2838 30.596 26.8699 31.1912 25.3817 31.1912C23.8934 31.1912 22.4795 30.596 21.4377 29.5543C20.3959 28.5127 19.8006 27.099 19.8006 25.6109C19.8006 24.1229 20.3959 22.7092 21.4377 21.6675C22.4795 20.6259 23.8934 20.0306 25.3817 20.0306ZM25.3817 18.0217C23.4469 18.0217 21.5121 18.7658 20.0238 20.2538C17.0472 23.23 17.0472 27.9919 20.0238 30.8936C21.5121 32.3817 23.4469 33.1257 25.3817 33.1257C27.3164 33.1257 29.2512 32.3817 30.7395 30.8936C33.7161 27.9175 33.7161 23.1556 30.7395 20.2538C29.2512 18.7658 27.3164 18.0217 25.3817 18.0217Z" fill="#515076" fill-opacity="0.5"/>
<path d="M44.2085 37.2177C45.6968 37.2177 47.1107 37.8129 48.1525 38.8545C49.1943 39.8962 49.7896 41.3098 49.7896 42.7979C49.7896 44.2859 49.1943 45.6996 48.1525 46.7412C47.1107 47.7829 45.6968 48.3781 44.2085 48.3781C42.7202 48.3781 41.3064 47.7829 40.2646 46.7412C39.2228 45.6996 38.6275 44.2859 38.6275 42.7979C38.6275 41.3098 39.2228 39.8962 40.2646 38.8545C41.3064 37.8129 42.7202 37.2177 44.2085 37.2177ZM44.2085 35.2832C42.2738 35.2832 40.339 36.0272 38.8507 37.5153C35.8741 40.4914 35.8741 45.2532 38.8507 48.1549C40.339 49.6429 42.2738 50.387 44.2085 50.387C46.1433 50.387 48.0781 49.6429 49.5663 48.1549C52.5429 45.1788 52.5429 40.417 49.5663 37.5153C48.0781 35.9528 46.1433 35.2832 44.2085 35.2832Z" fill="#515076" fill-opacity="0.5"/>
<path d="M23.2981 49.792C23.0748 49.792 22.8516 49.7176 22.6283 49.5688C22.1818 49.1968 22.1074 48.5271 22.4795 48.0807L43.6132 21.2212C43.9853 20.7748 44.655 20.7004 45.1015 21.0724C45.548 21.4444 45.6224 22.1141 45.2503 22.5605L24.1166 49.42C23.8934 49.7176 23.5957 49.792 23.2981 49.792Z" fill="#515076" fill-opacity="0.5"/>
</svg>
