<svg width="22" height="19" viewBox="0 0 23 20" fill="none" xmlns="http://www.w3.org/2000/svg">
<path d="M21.5475 0.24707H1.61637C0.933874 0.24707 0.379761 0.721917 0.379761 1.3089V18.423C0.379761 19.01 0.933874 19.4855 1.61637 19.4855H12.3467V12.0352H9.42708V9.13136H12.3467V6.98996C12.3467 4.50549 14.1134 3.1519 16.6951 3.1519C17.9328 3.1519 18.9942 3.23142 19.3037 3.26594V5.86287L17.513 5.86351C16.1093 5.86351 15.8385 6.43655 15.8385 7.27696V9.13041H19.1875L18.7496 12.034H15.8381V19.4845H21.5471C22.2303 19.4845 22.7848 19.0084 22.7848 18.423V1.30827C22.7845 0.721917 22.2307 0.24707 21.5475 0.24707Z" fill="#5B5A7E"/>
</svg>
